<?xml version="1.0" standalone="no"?>
<!DOCTYPE svg PUBLIC "-//W3C//DTD SVG 20010904//EN"
 "http://www.w3.org/TR/2001/REC-SVG-20010904/DTD/svg10.dtd">
<svg version="1.0" xmlns="http://www.w3.org/2000/svg"
 width="1976.000000pt" height="1976.000000pt" viewBox="0 0 1976.000000 1976.000000"
 preserveAspectRatio="xMidYMid meet">
<metadata>
Created by potrace 1.14, written by Peter Selinger 2001-2017
</metadata>
<g transform="translate(0.000000,1976.000000) scale(0.100000,-0.100000)"
fill="#000000" stroke="none">
<path d="M15666 16389 c-14 -11 -26 -16 -26 -10 0 6 -9 11 -19 11 -19 0 -35
-15 -36 -35 -5 -57 -151 -225 -195 -225 -6 0 -10 -4 -10 -9 0 -10 -107 -64
-127 -64 -7 0 -13 -5 -13 -10 0 -5 -7 -7 -15 -3 -8 3 -15 1 -15 -4 0 -6 -7
-10 -16 -10 -9 0 -28 -6 -42 -14 -30 -16 -62 -29 -77 -31 -5 -1 -23 -8 -40
-15 -16 -7 -32 -14 -35 -14 -3 -1 -11 -5 -17 -9 -7 -5 -13 -6 -13 -3 0 3 -21
-7 -47 -23 -27 -15 -59 -34 -72 -42 -31 -18 -39 -23 -77 -54 -18 -14 -35 -25
-39 -25 -11 0 -185 -179 -185 -191 0 -6 -11 -20 -26 -31 -14 -11 -23 -23 -20
-26 3 -3 -4 -13 -16 -24 -22 -19 -38 -42 -63 -95 -8 -18 -20 -33 -25 -33 -6 0
-10 -9 -10 -19 0 -11 -4 -22 -9 -26 -9 -5 -74 -132 -75 -147 -1 -3 -4 -10 -8
-14 -5 -4 -8 -16 -8 -26 0 -31 -17 -20 -34 22 -9 22 -20 40 -26 40 -5 0 -10 6
-10 13 0 17 -131 151 -170 174 -17 9 -30 21 -30 25 0 4 -6 8 -13 8 -8 0 -22 9
-32 20 -10 11 -24 20 -32 20 -7 0 -13 5 -13 10 0 6 -7 10 -15 10 -8 0 -15 5
-15 11 0 5 -4 8 -9 4 -5 -3 -12 -1 -16 5 -3 5 -21 17 -40 26 -21 10 -35 24
-35 35 0 22 -16 32 -52 34 -15 1 -38 11 -51 23 -13 12 -26 22 -30 22 -9 0
-134 128 -158 161 -10 14 -16 29 -12 33 3 3 1 6 -5 6 -6 0 -14 16 -18 35 -3
19 -10 38 -15 41 -5 3 -7 10 -4 15 4 5 -5 9 -19 9 -16 0 -32 -10 -46 -30 -12
-17 -27 -30 -33 -29 -7 1 -17 1 -23 0 -16 -1 -56 -80 -48 -93 4 -7 2 -8 -4 -4
-8 5 -12 -2 -12 -18 0 -14 -5 -26 -11 -26 -6 0 -9 -6 -6 -14 3 -8 0 -20 -8
-26 -8 -6 -12 -17 -9 -25 3 -7 1 -16 -5 -19 -6 -4 -8 -13 -5 -20 3 -8 1 -17
-5 -21 -6 -3 -11 -19 -11 -36 0 -16 -4 -29 -9 -29 -6 0 -9 -12 -7 -27 1 -16
-1 -32 -5 -38 -4 -5 -9 -30 -13 -55 -9 -69 -12 -411 -3 -417 4 -2 7 -24 7 -48
0 -24 4 -46 9 -49 5 -3 7 -15 4 -25 -3 -10 0 -22 6 -25 6 -4 11 -20 11 -37 0
-16 5 -29 12 -29 6 0 8 -3 5 -7 -4 -3 -2 -12 4 -20 6 -7 9 -13 5 -13 -5 0 22
-56 72 -146 7 -13 17 -24 23 -24 5 0 9 -6 9 -13 0 -7 13 -26 30 -42 16 -15 27
-31 25 -35 -2 -3 9 -17 26 -30 16 -14 29 -28 29 -33 0 -4 11 -20 24 -34 14
-15 23 -30 21 -34 -3 -4 1 -9 9 -12 8 -3 20 -18 28 -34 8 -15 24 -44 36 -65
11 -20 18 -39 15 -42 -3 -3 -1 -11 4 -18 6 -7 11 -36 11 -64 -1 -65 4 -72 42
-66 18 2 30 0 30 -7 0 -6 -5 -11 -11 -11 -5 0 -8 -4 -4 -9 3 -5 1 -12 -4 -15
-17 -11 -9 -65 12 -87 19 -21 19 -22 3 -35 -10 -7 -15 -17 -11 -23 3 -6 1 -11
-5 -11 -6 0 -8 -5 -5 -10 3 -6 -1 -13 -9 -16 -9 -3 -13 -10 -10 -15 3 -5 -2
-12 -10 -15 -9 -3 -14 -9 -11 -13 2 -5 -11 -25 -30 -46 -19 -21 -35 -41 -35
-45 0 -14 -24 -18 -44 -7 -17 8 -28 1 -72 -49 -68 -76 -120 -126 -219 -215
-77 -69 -165 -148 -233 -209 -21 -20 -34 -26 -36 -18 -7 21 -3 48 6 48 4 0 8
20 8 44 0 25 4 47 9 50 5 3 7 19 6 36 -1 16 1 30 6 30 5 0 9 20 9 45 0 25 3
45 8 45 4 0 8 12 9 28 5 67 9 87 16 93 4 3 8 22 9 42 1 20 5 37 10 37 5 0 7
16 5 35 -3 19 0 35 4 35 5 0 9 13 9 29 0 17 4 32 9 36 5 3 8 18 6 33 -1 15 2
33 8 40 6 8 10 27 9 43 -1 16 2 29 7 29 5 0 7 16 5 35 -1 19 1 37 7 40 5 4 9
26 9 50 0 24 4 46 9 49 5 3 7 20 5 37 -2 18 0 37 5 43 10 14 8 314 -3 339 -5
9 -6 24 -3 32 4 8 2 17 -3 20 -6 4 -10 19 -10 35 0 16 -4 31 -10 35 -5 3 -7
12 -3 20 3 8 0 15 -6 15 -6 0 -11 9 -11 20 0 11 -4 20 -8 20 -7 0 -27 44 -29
64 -1 5 -8 13 -17 18 -9 5 -16 15 -16 22 0 7 -13 26 -30 42 -16 16 -30 34 -30
41 0 6 -8 14 -19 18 -10 3 -31 19 -47 35 -16 16 -35 30 -41 30 -7 0 -13 4 -13
9 0 8 -55 36 -72 36 -3 0 -9 3 -13 7 -4 4 -13 4 -21 1 -8 -3 -14 0 -14 6 0 6
-13 11 -28 11 -16 0 -32 3 -36 7 -10 10 -176 11 -182 1 -3 -4 -25 -8 -50 -8
-24 0 -44 -5 -44 -10 0 -6 -6 -10 -12 -9 -19 4 -98 -23 -98 -33 0 -4 -10 -8
-21 -8 -22 0 -91 -37 -97 -52 -2 -5 -8 -6 -13 -2 -5 3 -9 0 -9 -5 0 -6 -9 -11
-20 -11 -11 0 -20 -5 -20 -10 0 -6 -8 -13 -17 -17 -10 -3 -39 -23 -65 -44 -26
-22 -50 -39 -53 -39 -10 0 -137 -132 -150 -155 -11 -19 -85 -31 -85 -14 0 5
-13 9 -29 9 -17 0 -32 4 -35 9 -3 4 -17 6 -31 3 -14 -2 -31 0 -38 5 -6 6 -27
9 -45 8 -18 -1 -35 2 -38 7 -6 10 -218 11 -228 1 -4 -4 -19 -8 -34 -8 -15 0
-33 -4 -39 -8 -7 -5 -16 -6 -21 -4 -4 3 -25 -3 -46 -14 -22 -10 -46 -19 -53
-19 -8 0 -16 -7 -19 -15 -4 -8 -12 -15 -19 -15 -14 0 -127 -73 -165 -107 -97
-87 -180 -168 -180 -175 0 -5 -20 -30 -45 -56 -104 -111 -133 -144 -132 -147
4 -8 -113 -145 -123 -145 -5 0 -7 -7 -4 -15 4 -8 1 -15 -4 -15 -14 0 -73 -86
-65 -94 4 -3 1 -6 -5 -6 -7 0 -12 -5 -12 -11 0 -6 -11 -25 -25 -43 -14 -18
-22 -35 -19 -39 3 -3 -1 -16 -10 -29 -9 -12 -16 -33 -16 -45 0 -13 -4 -23 -9
-23 -5 0 -8 -8 -6 -17 1 -10 -2 -27 -8 -37 -5 -11 -12 -38 -14 -60 -8 -69 -10
-560 -2 -571 3 -5 6 -23 5 -40 -1 -16 2 -38 7 -47 4 -10 4 -18 0 -18 -5 0 -7
-20 -5 -45 2 -25 7 -45 11 -45 4 0 7 -28 6 -62 -1 -35 2 -69 8 -75 5 -7 7 -32
6 -56 -2 -25 1 -49 7 -55 6 -6 9 -29 7 -51 -2 -25 0 -41 7 -41 6 0 9 -14 7
-34 -3 -22 1 -37 8 -40 15 -5 8 -53 -9 -64 -6 -4 -21 -7 -34 -7 -18 -1 -22 3
-19 17 3 10 1 20 -3 23 -4 3 -6 14 -3 25 3 11 1 20 -5 20 -6 0 -9 12 -8 27 3
23 -1 41 -22 103 -3 8 -4 21 -3 28 1 8 -3 20 -10 28 -6 7 -9 21 -5 29 3 8 1
15 -4 15 -6 0 -10 9 -10 19 0 11 -5 23 -10 26 -6 4 -10 14 -9 23 1 10 -4 31
-11 47 -7 17 -13 33 -12 38 1 4 -3 7 -8 7 -6 0 -10 9 -10 19 0 11 -5 23 -10
26 -6 4 -8 11 -5 16 4 5 1 9 -5 9 -7 0 -10 7 -6 15 3 8 1 15 -4 15 -6 0 -10 6
-10 14 0 8 -3 16 -7 18 -11 4 -43 75 -43 94 0 8 -6 17 -14 20 -7 3 -19 23 -26
45 -8 22 -22 46 -32 53 -10 7 -16 15 -13 18 3 3 -1 11 -10 18 -8 7 -15 18 -15
26 0 7 -6 17 -13 21 -7 4 -24 25 -37 47 -35 58 -192 206 -219 206 -5 0 -14 6
-18 13 -4 6 -20 18 -35 26 -15 8 -36 22 -47 32 -10 10 -22 15 -25 12 -3 -4 -6
-1 -6 6 0 8 -7 11 -15 7 -8 -3 -15 -1 -15 4 0 5 -17 19 -38 30 -54 29 -76 44
-84 55 -4 6 -8 6 -8 2 0 -5 -18 5 -39 22 -21 17 -43 31 -48 31 -5 0 -20 11
-33 25 -13 14 -28 25 -33 25 -14 0 -97 90 -97 105 0 9 -6 12 -15 9 -8 -4 -15
-2 -15 3 0 5 -9 9 -20 10 -11 1 -20 -2 -20 -8 0 -5 -14 -9 -31 -9 -56 0 -102
-38 -145 -120 -15 -30 -27 -58 -26 -62 1 -5 -3 -8 -9 -8 -6 0 -9 -7 -6 -15 4
-8 2 -17 -3 -20 -6 -4 -10 -17 -10 -31 0 -13 -5 -24 -11 -24 -6 0 -8 -7 -5
-15 3 -9 2 -23 -3 -33 -14 -26 -24 -56 -22 -66 1 -4 -3 -14 -10 -22 -6 -7 -8
-18 -5 -23 4 -5 2 -12 -4 -16 -5 -3 -10 -15 -10 -26 0 -10 -4 -19 -9 -19 -5 0
-12 -13 -16 -30 -4 -16 -11 -30 -16 -30 -5 0 -8 -3 -7 -7 0 -5 -3 -19 -8 -31
-8 -20 -12 -21 -22 -10 -12 15 -23 75 -22 121 0 15 -3 27 -8 27 -4 0 -19 21
-32 48 -22 41 -43 74 -85 131 -27 36 -243 251 -253 251 -6 0 -17 8 -24 18 -7
10 -30 26 -50 35 -20 10 -40 22 -43 27 -3 6 -15 10 -26 10 -10 0 -19 5 -19 11
0 6 -9 8 -20 4 -11 -3 -20 -2 -20 4 0 11 -108 10 -127 -2 -7 -5 -13 -5 -13 -1
0 3 -7 1 -15 -6 -14 -12 -19 -7 -16 14 1 4 -3 13 -8 20 -5 6 -12 29 -16 51 -4
22 -11 45 -15 50 -5 6 -9 13 -9 17 -6 42 -15 68 -23 68 -5 0 -6 9 -3 20 3 11
2 20 -4 20 -5 0 -12 14 -16 30 -4 17 -11 30 -16 30 -5 0 -8 3 -7 8 4 11 -36
102 -44 102 -5 0 -8 7 -8 15 0 8 -4 15 -10 15 -5 0 -10 9 -10 20 0 11 -4 20
-10 20 -5 0 -10 7 -10 15 0 8 -4 15 -10 15 -5 0 -10 6 -10 13 0 8 -11 24 -25
37 -14 13 -23 26 -20 28 3 3 -7 15 -20 28 -14 13 -25 28 -25 34 0 5 -4 10 -8
10 -4 0 -15 12 -24 28 -9 15 -30 42 -47 60 -17 17 -31 38 -31 46 0 8 -9 18
-20 21 -11 3 -20 11 -20 16 0 17 -5 23 -42 57 -21 19 -38 40 -38 48 0 7 -8 18
-18 23 -10 5 -24 22 -32 38 -8 15 -27 38 -42 51 -15 13 -27 27 -25 30 1 4 -8
19 -21 32 -12 14 -38 45 -57 70 -19 25 -42 52 -50 61 -8 9 -15 19 -15 22 0 6
-50 76 -86 120 -8 9 -14 24 -14 32 0 8 -4 15 -9 15 -19 0 -61 89 -61 129 0 23
-4 41 -9 41 -6 0 -9 15 -7 33 2 18 -2 40 -8 49 -15 21 -56 42 -56 28 0 -16
-37 -12 -44 6 -3 9 -6 33 -6 54 0 30 -6 41 -26 55 -20 13 -28 14 -34 5 -4 -6
-11 -11 -16 -9 -5 1 -13 -8 -19 -20 -5 -11 -13 -21 -17 -21 -5 0 -8 -7 -8 -15
0 -8 -4 -15 -10 -15 -5 0 -7 -7 -4 -15 4 -8 1 -15 -5 -15 -6 0 -11 -6 -11 -14
0 -8 -4 -16 -8 -18 -5 -1 -32 -51 -61 -110 -30 -60 -57 -108 -62 -108 -4 0
-10 -13 -14 -30 -4 -16 -11 -30 -16 -30 -5 0 -8 -3 -7 -7 3 -10 -30 -73 -50
-95 -8 -10 -11 -18 -6 -18 5 0 4 -4 -1 -8 -6 -4 -19 -26 -29 -49 -11 -24 -23
-43 -28 -43 -4 0 -7 -3 -6 -7 4 -11 -53 -126 -66 -135 -6 -4 -8 -8 -3 -8 4 0
-10 -35 -31 -77 -39 -78 -96 -200 -98 -212 -6 -26 -18 -51 -24 -51 -5 0 -6 -9
-3 -20 3 -11 0 -20 -6 -20 -6 0 -11 -11 -11 -25 0 -14 -5 -25 -11 -25 -5 0 -7
-4 -4 -10 3 -5 2 -10 -4 -10 -5 0 -8 -8 -7 -17 2 -9 -5 -39 -15 -65 -9 -26
-15 -48 -12 -48 3 0 1 -6 -5 -12 -10 -13 -27 -95 -20 -101 1 -2 -3 -11 -11
-20 -7 -9 -11 -23 -8 -31 3 -7 0 -25 -8 -39 -7 -13 -11 -39 -9 -57 2 -18 0
-38 -5 -44 -5 -6 -8 -45 -7 -86 1 -41 -2 -81 -7 -87 -5 -7 -6 -13 -1 -13 10 0
11 -106 1 -116 -4 -4 -7 -3 -7 3 0 6 -11 14 -24 17 -14 3 -27 15 -31 25 -3 11
-21 26 -40 35 -18 9 -35 20 -37 24 -2 4 -28 20 -58 36 -30 16 -62 35 -71 42
-9 8 -18 12 -21 9 -3 -3 -21 1 -39 9 -54 23 -73 29 -86 27 -7 -1 -13 2 -13 7
0 11 -56 26 -83 23 -9 -1 -17 2 -17 7 0 5 -14 8 -30 7 -17 -1 -33 1 -36 6 -3
5 -20 9 -39 9 -19 0 -36 4 -40 9 -3 5 -20 8 -38 7 -17 -2 -43 1 -57 5 -51 17
-590 32 -590 17 0 -4 -52 -8 -117 -7 -64 0 -119 -3 -122 -8 -3 -4 -40 -9 -81
-11 -160 -5 -243 -12 -254 -20 -6 -5 -39 -8 -73 -7 -35 0 -63 -2 -63 -6 0 -5
-27 -7 -61 -6 -33 2 -63 -1 -65 -5 -3 -5 -27 -8 -54 -8 -27 0 -51 -4 -54 -9
-4 -5 -23 -9 -44 -8 -20 1 -43 -3 -51 -7 -7 -5 -33 -8 -57 -8 -24 1 -46 -2
-48 -7 -3 -4 -22 -7 -41 -6 -20 1 -38 -2 -41 -7 -3 -4 -20 -8 -38 -8 -18 0
-36 -3 -40 -7 -3 -4 -19 -8 -34 -9 -15 -2 -34 -4 -42 -7 -8 -2 -37 -7 -65 -12
-27 -4 -56 -12 -63 -18 -7 -5 -15 -7 -19 -4 -3 3 -18 0 -34 -9 -20 -10 -29
-11 -29 -3 0 7 -9 5 -25 -5 -14 -9 -31 -16 -38 -15 -6 1 -28 -4 -47 -12 -19
-7 -39 -12 -44 -11 -6 2 -19 -1 -30 -6 -12 -6 -30 -14 -41 -18 -11 -4 -22 -8
-25 -9 -3 -1 -20 -6 -38 -10 -18 -4 -35 -11 -38 -16 -2 -4 -11 -6 -19 -2 -8 3
-15 0 -15 -6 0 -6 -3 -10 -7 -9 -5 0 -16 -2 -25 -5 -25 -10 -47 -16 -53 -17
-3 0 -20 -7 -38 -17 -17 -9 -36 -17 -42 -17 -14 -1 -129 -59 -136 -69 -3 -5
-9 -9 -12 -9 -20 0 -47 -12 -47 -21 0 -6 -3 -8 -6 -5 -6 6 -118 -51 -166 -84
-16 -11 -28 -16 -28 -13 0 4 -14 -5 -31 -19 -17 -15 -45 -34 -63 -43 -34 -18
-109 -74 -114 -85 -2 -5 -10 -8 -17 -8 -8 0 -22 -11 -33 -25 -11 -14 -25 -25
-32 -25 -6 0 -30 -20 -52 -45 -23 -25 -43 -43 -46 -40 -3 2 -15 -4 -28 -14
-12 -10 -33 -17 -46 -16 -23 2 -55 -21 -45 -32 4 -3 2 -14 -4 -24 -7 -13 -6
-19 1 -19 6 0 10 -6 8 -14 -2 -8 1 -15 6 -14 5 0 12 -6 16 -12 4 -6 20 -14 36
-16 28 -5 47 -7 142 -20 23 -4 42 -10 42 -14 0 -4 8 -7 18 -7 9 1 37 -5 62
-12 25 -7 50 -14 57 -15 7 -1 16 -5 19 -9 4 -4 17 -7 29 -7 12 0 25 -3 29 -7
4 -5 11 -8 14 -9 4 0 18 -5 32 -11 24 -11 52 -21 68 -24 4 -1 18 -10 31 -20
13 -10 27 -16 32 -13 5 3 9 1 9 -4 0 -6 12 -13 27 -17 15 -3 34 -15 43 -25 10
-11 19 -17 22 -15 3 3 11 -1 18 -10 7 -8 19 -15 26 -15 8 0 14 -5 14 -10 0 -6
11 -15 25 -20 14 -5 25 -14 25 -19 0 -5 8 -12 18 -15 21 -7 174 -156 224 -219
52 -64 108 -146 108 -157 0 -5 7 -13 16 -18 24 -13 13 -45 -15 -47 -14 -1 -27
-7 -29 -13 -2 -8 -9 -9 -22 -2 -13 7 -20 6 -24 -6 -3 -8 -10 -13 -15 -10 -5 3
-29 -6 -55 -20 -25 -14 -50 -23 -56 -19 -6 3 -13 -1 -16 -9 -3 -8 -21 -21 -40
-28 -19 -6 -34 -16 -34 -22 0 -5 -3 -7 -6 -3 -3 3 -14 -2 -25 -11 -11 -9 -22
-16 -24 -15 -3 2 -15 -7 -29 -20 -13 -12 -30 -27 -38 -32 -88 -67 -152 -128
-228 -216 -30 -35 -60 -68 -67 -72 -7 -4 -13 -14 -13 -22 0 -8 -6 -18 -12 -22
-20 -12 -88 -100 -88 -112 0 -6 -5 -11 -10 -11 -6 0 -14 -8 -17 -17 -6 -16
-69 -100 -84 -113 -3 -3 -11 -15 -18 -27 -6 -13 -18 -23 -26 -23 -9 0 -12 -6
-8 -17 4 -11 3 -14 -5 -9 -7 4 -12 2 -12 -4 0 -6 -20 -31 -44 -55 -24 -25 -41
-47 -38 -50 3 -3 -3 -5 -13 -5 -15 0 -16 -3 -7 -12 9 -9 4 -21 -21 -50 -55
-66 -295 -308 -306 -308 -5 0 -18 -11 -29 -25 -11 -13 -31 -30 -46 -36 -14 -7
-26 -16 -26 -21 0 -4 -5 -8 -12 -8 -6 0 -19 -7 -28 -15 -23 -21 -130 -85 -141
-85 -5 0 -9 -5 -9 -11 0 -5 -4 -8 -9 -5 -5 3 -14 -1 -21 -9 -7 -8 -21 -15 -31
-15 -11 0 -19 -4 -19 -10 0 -5 -7 -7 -15 -4 -8 4 -15 2 -15 -4 0 -6 -15 -15
-33 -21 -17 -7 -32 -11 -32 -10 0 1 -11 -4 -25 -11 -14 -8 -30 -13 -37 -12 -6
1 -14 -2 -18 -7 -3 -6 -12 -8 -20 -5 -8 4 -17 -1 -21 -9 -3 -9 -13 -13 -25
-10 -10 3 -19 1 -19 -5 0 -6 -9 -9 -19 -7 -11 2 -44 -5 -73 -16 -29 -10 -53
-19 -54 -19 -1 0 -1 -27 0 -60 2 -50 7 -64 29 -84 14 -13 28 -21 31 -19 3 3 8
-1 12 -10 3 -9 12 -13 20 -10 7 3 16 -2 20 -10 3 -9 19 -19 35 -22 16 -4 29
-10 29 -15 0 -4 8 -10 17 -12 10 -3 23 -6 28 -8 6 -1 16 -11 23 -22 7 -10 18
-16 23 -13 5 4 9 1 9 -4 0 -6 3 -10 7 -9 5 1 42 -14 83 -34 105 -50 134 -62
142 -60 5 1 8 -2 8 -7 0 -5 10 -11 23 -15 12 -3 22 -5 22 -4 0 0 18 -8 40 -19
22 -11 46 -18 53 -16 6 3 12 0 12 -5 0 -10 37 -25 58 -23 6 1 12 -3 12 -10 0
-6 8 -9 20 -6 11 3 20 2 20 -3 0 -6 27 -15 65 -20 2 -1 17 -7 32 -15 14 -8 30
-12 35 -9 5 3 14 1 21 -4 7 -5 19 -10 27 -10 8 -1 38 -6 65 -12 28 -6 64 -11
80 -13 17 -1 35 -5 40 -9 6 -3 42 -6 80 -6 39 0 78 -3 88 -7 28 -12 90 -12
113 0 11 6 51 10 87 9 37 -1 67 2 67 6 0 4 12 8 28 9 49 1 102 13 102 23 0 5
5 6 10 3 6 -4 16 -2 23 3 7 5 26 13 42 17 40 11 44 12 53 15 4 1 10 2 15 1 4
0 7 4 7 9 0 6 7 10 15 10 8 0 15 5 15 11 0 8 4 8 14 0 10 -9 15 -8 20 4 3 8 9
15 14 15 10 0 3 -71 -10 -87 -5 -7 -8 -22 -7 -35 2 -13 -1 -30 -6 -38 -5 -8
-10 -26 -12 -40 -1 -14 -5 -38 -9 -55 -3 -16 -8 -47 -11 -67 -3 -21 -9 -38
-14 -38 -5 0 -8 -16 -6 -35 3 -19 0 -35 -5 -35 -6 0 -7 -17 -3 -40 4 -23 3
-40 -2 -40 -6 0 -10 -6 -10 -12 0 -12 -50 -126 -74 -170 -5 -10 -9 -24 -9 -32
0 -8 -8 -21 -18 -28 -17 -13 -45 -63 -47 -83 0 -5 -8 -24 -17 -42 -9 -18 -19
-50 -23 -73 -4 -22 -11 -42 -16 -46 -5 -3 -7 -18 -4 -35 3 -16 1 -29 -5 -29
-6 0 -10 -62 -10 -170 0 -93 4 -170 8 -170 5 0 8 -18 7 -40 -1 -22 2 -40 6
-40 5 0 11 -23 15 -50 4 -27 10 -50 14 -50 5 0 11 -14 15 -30 4 -17 17 -50 31
-75 13 -25 21 -45 17 -45 -4 0 3 -10 15 -22 11 -13 21 -26 21 -31 3 -48 240
-300 284 -302 5 0 15 -8 22 -19 8 -10 18 -15 23 -12 5 3 20 -5 33 -17 13 -12
24 -21 24 -20 0 7 45 -11 45 -17 0 -5 9 -6 20 -3 11 3 20 0 20 -6 0 -6 3 -10
8 -9 8 1 58 -10 82 -19 22 -9 22 -9 70 -17 61 -10 84 -14 90 -16 3 -1 20 -2
37 -2 18 0 35 -4 38 -9 4 -5 26 -9 50 -9 24 0 46 -4 49 -8 3 -5 15 -8 28 -7
13 1 29 -2 36 -8 6 -5 12 -7 12 -4 0 4 18 0 39 -8 22 -7 42 -11 44 -8 3 3 12
1 19 -3 7 -5 19 -9 27 -11 8 -1 17 -7 21 -13 4 -7 10 -11 14 -11 6 1 8 1 24
-4 51 -14 62 -18 62 -26 0 -5 3 -8 8 -7 4 0 15 -2 24 -5 10 -4 26 -10 35 -14
10 -3 22 -5 27 -4 4 1 13 -3 20 -8 6 -5 31 -12 56 -16 59 -8 85 -13 85 -15 0
-8 123 -5 132 3 7 5 24 7 38 5 14 -3 30 1 36 8 6 7 16 11 24 8 7 -3 16 -1 20
5 11 19 25 12 25 -14 0 -14 -4 -25 -9 -25 -5 0 -8 -11 -5 -24 2 -14 0 -28 -6
-31 -5 -3 -10 -21 -10 -39 0 -18 -3 -36 -7 -39 -3 -4 -8 -22 -10 -39 -7 -77
-10 -94 -18 -118 -4 -14 -9 -41 -11 -60 -1 -19 -6 -53 -9 -75 -3 -22 -8 -62
-11 -90 -4 -27 -9 -54 -13 -60 -5 -5 -7 -27 -5 -47 2 -21 -2 -38 -7 -38 -5 0
-9 -15 -7 -34 1 -19 -3 -40 -8 -48 -6 -7 -10 -30 -8 -50 1 -21 -3 -38 -8 -38
-5 0 -8 -10 -7 -22 2 -22 -2 -37 -21 -83 -7 -16 -23 -64 -36 -105 -1 -3 -5
-20 -9 -37 -4 -18 -12 -33 -18 -33 -6 0 -8 -3 -4 -6 3 -3 -1 -25 -10 -47 -13
-39 -20 -63 -27 -94 -1 -7 -5 -16 -9 -19 -4 -4 -7 -18 -7 -30 0 -13 -4 -25 -9
-28 -4 -3 -8 -16 -7 -28 1 -13 -2 -25 -5 -28 -17 -12 -32 -297 -17 -307 5 -2
8 -18 8 -35 0 -16 6 -42 14 -56 8 -15 19 -38 25 -52 19 -43 34 -64 86 -113 70
-67 80 -75 130 -99 25 -12 45 -25 45 -29 0 -5 9 -6 20 -4 11 2 22 0 25 -6 4
-5 15 -9 26 -9 10 0 19 -4 19 -9 0 -5 9 -7 20 -4 12 3 20 0 20 -7 0 -7 11 -10
28 -9 15 1 45 -1 68 -5 47 -8 104 -16 154 -20 19 -2 42 -6 50 -9 8 -3 32 -8
54 -10 38 -5 76 -27 46 -27 -8 0 -29 -14 -47 -30 -18 -17 -35 -30 -39 -30 -9
0 -84 -76 -84 -85 0 -4 -17 -26 -38 -49 -20 -23 -45 -53 -54 -66 -10 -14 -31
-44 -48 -67 -16 -24 -30 -47 -30 -53 0 -5 -4 -10 -8 -10 -8 0 -35 -46 -36 -63
-1 -4 -6 -11 -12 -15 -6 -4 -19 -23 -30 -42 -10 -19 -21 -37 -24 -40 -7 -7
-29 -43 -37 -60 -4 -8 -9 -17 -12 -20 -9 -8 -71 -100 -71 -106 0 -3 -12 -16
-26 -29 -15 -14 -23 -25 -18 -25 4 0 -17 -26 -49 -58 -32 -32 -54 -61 -51 -65
4 -4 1 -7 -7 -7 -8 0 -32 -18 -54 -40 -21 -21 -42 -37 -46 -34 -4 2 -11 -2
-16 -9 -7 -11 -78 -60 -93 -63 -22 -5 -70 -30 -70 -36 0 -4 -10 -8 -21 -8 -23
0 -59 -34 -59 -56 0 -14 40 -40 41 -27 0 4 4 -2 9 -15 5 -12 22 -27 37 -32 16
-6 35 -14 43 -17 8 -4 20 -7 25 -8 6 0 20 -6 32 -13 13 -7 23 -10 23 -6 0 3 6
1 14 -5 8 -7 20 -11 28 -10 7 1 20 0 28 -4 31 -12 76 -20 108 -20 17 -1 32 -4
32 -8 0 -4 34 -8 77 -8 42 0 79 -4 82 -8 7 -9 48 -9 71 0 8 4 53 8 100 11 47
3 102 6 123 8 20 1 37 6 37 10 0 4 13 8 29 8 17 0 32 4 35 9 3 4 17 6 31 3 14
-2 25 0 25 6 0 5 12 12 28 15 15 3 45 14 67 23 22 10 42 18 45 19 3 0 11 4 18
8 6 5 12 5 12 0 0 -4 4 -3 8 2 4 6 47 30 96 55 124 63 126 64 126 73 0 4 4 6
9 3 5 -3 14 1 21 9 19 23 29 18 26 -13 -2 -15 -5 -27 -6 -27 -2 0 -4 -13 -5
-30 -2 -42 -15 -83 -44 -145 -7 -14 -14 -32 -16 -40 -8 -36 -18 -60 -24 -60
-13 0 1 -61 15 -67 8 -3 22 1 31 8 13 11 17 11 20 2 5 -14 104 -18 117 -6 4 5
22 9 39 10 49 3 119 20 152 37 17 9 35 16 42 16 6 0 13 3 15 8 2 4 24 17 51
30 26 13 47 28 47 34 0 6 3 8 7 5 4 -4 19 5 35 20 15 15 28 23 28 19 0 -11
170 166 218 227 52 67 93 127 87 127 -3 0 3 9 12 19 32 35 61 78 69 104 4 9
11 17 17 17 6 0 8 3 4 6 -3 4 5 21 18 38 13 17 27 43 30 59 4 15 10 27 14 27
6 0 31 51 37 75 7 33 18 55 26 55 5 0 8 6 7 13 -1 6 1 20 4 30 4 9 10 25 14
35 3 9 5 21 4 26 -1 4 2 13 8 20 5 6 8 22 7 36 -1 14 1 30 5 35 3 6 9 22 13
37 4 20 13 28 29 28 36 0 97 12 97 19 0 3 17 6 38 6 20 -1 42 2 47 6 6 4 33
10 60 13 28 4 61 9 75 12 14 3 38 7 55 9 16 2 31 8 33 14 2 6 14 8 27 5 12 -3
26 -1 30 5 3 6 10 9 15 6 5 -3 11 -1 15 5 10 17 25 11 25 -10 0 -11 -3 -20 -8
-20 -10 0 -9 -206 1 -216 4 -4 7 -18 7 -30 0 -13 5 -26 10 -29 6 -3 7 -17 4
-31 -4 -14 -2 -24 5 -24 6 0 11 -10 11 -23 0 -13 5 -28 12 -35 7 -7 9 -12 5
-12 -4 0 3 -19 15 -42 13 -24 23 -48 23 -53 1 -15 119 -249 128 -253 4 -2 7
-10 7 -18 0 -8 9 -32 19 -52 27 -52 45 -96 43 -105 -1 -4 4 -10 12 -13 8 -3
12 -12 9 -20 -3 -8 0 -20 6 -28 7 -8 11 -18 10 -22 -6 -25 15 -65 37 -70 33
-8 57 12 43 37 -6 13 -6 19 0 19 6 0 15 -9 21 -19 14 -28 37 -20 66 22 14 21
40 54 59 75 67 72 75 83 70 92 -3 4 2 11 10 14 9 3 20 17 25 31 5 14 14 25 21
25 6 0 9 6 7 12 -3 7 0 18 6 25 30 33 36 43 42 67 3 14 10 26 15 26 5 0 9 9 9
19 0 11 5 23 10 26 6 4 8 10 5 15 -3 5 0 12 6 15 5 4 8 13 5 21 -3 8 -2 14 3
14 8 0 22 46 25 80 1 8 5 21 10 28 10 16 16 57 19 134 1 31 5 60 10 64 9 10 9
118 0 128 -5 4 -9 33 -10 64 -1 32 -5 69 -8 84 -5 19 -3 28 4 28 7 0 10 -4 7
-8 -3 -5 8 -24 24 -43 16 -19 29 -39 30 -45 0 -7 19 -28 43 -48 23 -20 49 -43
57 -50 8 -8 33 -22 55 -33 22 -10 42 -20 45 -23 3 -3 30 -16 60 -30 30 -14 57
-28 58 -32 2 -5 9 -8 17 -8 7 0 18 -7 25 -15 7 -8 16 -12 21 -9 5 3 9 0 9 -5
0 -6 5 -11 11 -11 7 0 31 -16 55 -35 23 -19 45 -35 49 -35 10 0 175 -165 175
-175 0 -4 45 -53 100 -108 55 -55 100 -96 100 -93 0 4 14 -2 30 -14 17 -12 30
-18 30 -15 0 3 12 -2 28 -13 15 -10 33 -17 40 -15 7 3 18 0 25 -5 14 -12 107
-13 123 -1 6 5 20 7 32 4 12 -2 22 0 22 4 0 7 18 15 45 20 6 1 32 23 75 63 16
16 34 28 39 28 5 0 53 45 107 100 54 55 103 100 110 100 6 0 14 6 17 14 3 8
21 19 41 26 19 6 38 20 41 31 8 23 -12 52 -31 45 -7 -3 -16 -1 -19 4 -4 6 -2
10 4 10 5 0 22 13 38 28 27 28 67 54 88 58 6 1 22 4 38 7 15 3 37 8 50 12 20
5 20 5 5 -8 -25 -20 -20 -86 7 -101 11 -6 22 -14 25 -17 7 -9 40 -7 40 3 0 4
10 8 23 7 39 -1 107 13 107 22 0 5 10 9 23 9 12 0 32 7 44 15 12 9 26 14 30
13 10 -3 93 40 115 59 9 8 21 12 27 9 5 -4 12 3 16 14 3 11 12 20 19 20 7 0
21 9 31 20 10 11 22 20 27 20 19 0 123 114 205 226 37 49 99 178 95 197 -1 4
3 7 9 7 6 0 9 9 6 19 -3 11 1 22 9 25 8 3 11 15 8 30 -2 15 0 26 6 26 5 0 10
13 10 29 0 17 4 32 9 35 5 3 7 20 5 37 -2 17 -1 36 4 43 4 6 7 22 8 36 1 14 4
32 7 40 9 25 20 74 19 83 -1 4 2 7 7 7 5 0 11 18 15 40 3 22 11 40 16 40 6 0
10 9 10 20 0 11 4 20 10 20 5 0 7 7 4 15 -4 8 -1 15 5 15 6 0 11 7 11 15 0 8
13 39 29 68 16 28 27 58 24 65 -3 6 0 12 5 12 9 0 23 31 26 57 1 6 5 15 9 19
4 4 7 18 7 30 0 13 4 25 8 28 5 3 8 22 6 43 -1 21 1 42 4 48 10 15 10 325 1
325 -5 0 -8 19 -8 43 0 23 -4 60 -10 82 -5 22 -15 68 -23 103 -7 34 -16 62
-20 62 -4 0 -5 10 -3 22 3 12 1 26 -4 32 -4 6 -7 28 -7 49 1 20 -1 37 -4 37
-3 0 -5 15 -5 33 3 61 3 61 28 45 25 -16 133 -61 157 -65 8 -1 31 -5 50 -8 19
-4 42 -9 50 -13 8 -3 33 -6 55 -6 38 -1 40 -3 41 -31 0 -17 3 -35 6 -40 3 -6
4 -26 2 -45 -11 -107 -3 -317 13 -360 4 -8 7 -17 8 -20 15 -55 45 -120 67
-144 10 -11 23 -32 30 -47 6 -14 24 -35 40 -45 15 -11 28 -22 28 -26 0 -9 81
-88 90 -88 4 0 19 -12 34 -26 14 -15 26 -24 26 -20 0 4 10 -2 22 -14 12 -11
34 -26 50 -32 15 -7 28 -16 28 -20 0 -5 6 -8 13 -8 20 0 51 -37 37 -45 -5 -3
-8 -11 -5 -16 4 -5 -3 -22 -14 -38 -11 -15 -18 -31 -14 -34 3 -4 1 -12 -5 -19
-5 -7 -13 -31 -17 -53 -4 -22 -12 -46 -18 -53 -5 -7 -7 -15 -4 -18 3 -3 1 -18
-4 -32 -5 -14 -10 -40 -11 -59 -1 -18 -4 -33 -7 -33 -4 0 -7 -67 -7 -150 0
-82 3 -150 6 -150 4 0 8 -24 9 -52 1 -29 6 -57 10 -61 5 -5 7 -16 4 -23 -3 -8
-1 -20 5 -27 5 -6 13 -31 17 -54 4 -24 11 -43 15 -43 5 0 7 -9 5 -19 -2 -11 3
-25 10 -31 8 -6 11 -18 8 -26 -3 -8 0 -14 7 -14 6 0 10 -6 7 -12 -2 -7 3 -26
11 -43 9 -16 15 -35 14 -42 -1 -6 2 -14 8 -18 5 -3 10 -15 10 -26 0 -10 5 -19
12 -19 6 0 8 -3 5 -7 -4 -3 -2 -12 3 -19 6 -6 10 -16 9 -20 -2 -10 7 -40 21
-66 5 -9 7 -26 5 -37 -2 -12 0 -21 6 -21 5 0 9 -9 9 -19 0 -11 4 -22 10 -26 5
-3 7 -12 3 -20 -3 -8 -1 -15 5 -15 5 0 13 -24 17 -53 5 -28 9 -54 10 -57 1 -3
4 -12 8 -20 9 -25 18 -74 18 -99 -1 -12 2 -28 6 -35 4 -6 8 -18 9 -26 0 -8 4
-31 8 -52 10 -48 16 -92 20 -158 2 -30 6 -62 9 -70 10 -24 16 -150 19 -392 2
-175 0 -229 -9 -233 -7 -2 -13 -11 -13 -20 0 -8 -3 -15 -7 -15 -5 0 -13 -11
-19 -24 -14 -31 11 -68 43 -62 29 6 77 32 92 50 8 9 19 16 26 16 8 0 15 3 17
8 5 11 88 75 88 67 0 -4 15 4 33 17 60 45 351 198 376 198 6 0 11 5 11 11 0 6
6 9 14 6 8 -3 20 1 26 8 7 8 15 14 18 13 4 -1 23 6 42 17 19 10 41 20 48 21 8
1 23 11 34 21 11 10 21 17 22 15 4 -10 176 68 176 81 0 4 5 7 11 7 6 0 25 10
42 22 18 13 34 22 37 22 12 -3 51 17 70 36 11 11 20 17 20 14 0 -4 7 -1 15 6
8 7 15 9 15 5 0 -5 9 2 20 15 11 13 20 20 20 16 0 -4 17 6 37 21 20 15 37 26
37 23 1 -3 22 12 47 33 25 20 49 37 53 37 10 0 70 43 79 57 4 7 13 13 19 13 6
0 18 9 27 19 10 11 23 21 31 23 8 2 25 15 38 31 13 15 28 27 34 27 6 0 26 15
44 33 19 17 72 66 119 107 144 127 343 333 446 460 63 78 99 129 99 139 0 7 7
14 15 17 8 4 13 10 10 14 -3 4 2 14 11 21 8 7 22 26 30 43 7 17 25 49 39 71
13 22 24 48 25 58 0 9 5 17 10 17 6 0 9 3 8 8 -1 4 4 23 11 42 8 19 13 39 12
44 -1 4 4 14 10 22 7 8 9 17 6 21 -4 3 0 14 7 25 8 11 12 28 9 38 -3 11 -2 28
3 37 10 25 13 163 2 169 -4 3 -8 20 -8 38 0 18 -3 36 -7 40 -9 8 -12 46 -4 47
29 6 103 3 107 -3 3 -4 27 -8 54 -8 27 0 51 -4 54 -9 3 -5 19 -7 36 -6 16 1
30 -1 30 -6 0 -5 18 -9 40 -9 22 0 40 -4 40 -9 0 -5 9 -7 20 -4 11 3 27 0 35
-7 8 -7 21 -10 29 -7 7 3 17 2 22 -3 5 -4 34 -15 64 -25 30 -9 62 -19 70 -22
8 -4 17 -7 20 -8 3 -1 27 -12 54 -24 27 -12 51 -19 54 -17 2 3 11 -2 19 -10 8
-8 19 -12 24 -9 5 4 9 2 9 -4 0 -6 12 -14 27 -17 15 -4 38 -13 52 -20 14 -8
32 -14 39 -14 6 0 12 -5 12 -11 0 -5 4 -8 9 -5 5 4 11 3 13 -1 1 -5 37 -25 78
-46 41 -21 98 -52 125 -68 28 -16 58 -32 68 -35 9 -4 17 -10 17 -15 0 -5 5 -9
11 -9 14 0 186 -116 221 -149 15 -15 28 -32 28 -38 0 -7 5 -13 10 -13 6 0 9
-3 8 -7 -1 -5 6 -21 17 -38 10 -16 19 -31 19 -31 1 -1 11 -5 24 -8 16 -6 22
-3 22 8 0 23 21 20 27 -4 3 -11 9 -20 13 -20 4 0 13 -13 20 -29 16 -39 91 -69
125 -51 21 11 22 16 13 44 -6 17 -45 65 -87 106 -42 41 -75 76 -74 77 5 7 -11
43 -19 43 -5 0 -7 4 -3 9 3 5 1 12 -4 15 -5 3 -12 22 -15 41 -4 19 -12 35 -18
35 -5 0 -8 6 -5 14 3 8 -1 20 -8 26 -8 7 -12 16 -9 22 3 5 1 15 -5 22 -7 8
-11 18 -10 22 1 5 -1 17 -4 27 -4 9 -10 25 -14 35 -3 9 -7 25 -7 34 -1 9 -4
20 -9 24 -4 4 -7 27 -7 51 0 23 -3 43 -8 43 -4 0 -7 19 -6 43 0 23 -2 47 -5
52 -3 6 -6 67 -6 137 -1 120 0 127 19 124 10 -1 24 -9 30 -18 6 -8 13 -15 16
-16 18 -3 49 -18 75 -36 17 -12 32 -21 35 -22 23 -5 70 -30 70 -37 0 -4 4 -6
9 -2 5 3 12 1 16 -5 3 -5 15 -10 26 -10 10 0 19 -5 19 -10 0 -6 3 -9 8 -8 14
4 52 -13 52 -23 0 -6 5 -7 10 -4 6 4 17 1 25 -5 8 -7 15 -9 15 -4 0 5 7 1 15
-10 7 -10 18 -15 24 -11 6 3 17 3 24 -2 6 -4 14 -8 17 -9 27 -5 67 -18 76 -26
6 -4 19 -6 28 -2 9 3 16 1 16 -5 0 -6 17 -11 39 -11 22 0 42 -4 45 -9 3 -5 20
-7 37 -5 18 2 37 0 43 -5 13 -11 386 -12 386 -1 0 4 15 7 33 7 17 0 42 5 54
11 18 10 23 9 30 -3 7 -13 14 -11 45 10 20 14 48 25 62 25 15 0 26 4 26 9 0 6
9 8 20 6 11 -2 20 0 20 5 0 5 16 12 35 16 19 3 35 11 35 16 0 6 7 8 15 4 8 -3
15 -2 15 2 0 4 15 13 33 20 17 8 43 18 57 24 14 7 28 11 33 10 4 -1 7 2 7 7 0
5 21 19 48 32 26 12 50 27 53 32 4 5 12 7 17 3 6 -4 16 3 22 14 6 11 16 20 23
20 7 0 27 13 46 29 19 17 38 28 43 25 4 -3 11 2 14 10 3 9 10 16 15 16 12 0
69 40 91 63 9 10 18 17 20 15 4 -4 98 71 115 92 7 8 13 11 13 6 0 -5 18 10 41
32 22 23 44 42 48 42 4 0 22 16 41 35 19 19 38 35 43 35 5 0 30 20 55 45 88
84 169 155 176 155 4 0 28 20 52 45 24 25 44 43 44 39 0 -4 22 13 49 37 90 81
111 99 119 99 5 0 21 13 37 30 16 16 30 28 32 26 2 -2 15 6 28 18 13 11 34 29
47 38 12 10 34 26 48 36 14 10 33 21 43 25 9 3 17 11 17 17 0 5 6 10 14 10 7
0 19 7 26 15 7 8 16 12 21 9 5 -3 9 -1 9 4 0 12 94 70 126 78 13 3 24 10 24
15 0 5 7 9 15 9 8 0 15 5 15 11 0 5 4 8 9 5 5 -3 14 1 21 9 7 8 18 15 25 15 6
0 33 11 58 24 25 14 48 22 51 19 3 -4 6 -1 6 6 0 7 6 11 13 9 6 -3 32 7 57 22
42 25 45 29 45 71 1 32 -5 49 -20 61 -17 15 -18 18 -3 18 9 0 20 10 23 21 9
27 -15 52 -53 56 -25 3 -47 6 -149 19 -24 4 -43 10 -43 15 0 5 -14 7 -30 5
-17 -2 -33 0 -36 5 -3 5 -16 9 -30 9 -13 0 -24 5 -24 10 0 6 -6 10 -12 9 -13
-2 -18 -1 -103 32 -92 37 -245 130 -245 150 0 6 -4 8 -8 5 -12 -7 -132 118
-132 138 0 9 -8 20 -17 23 -26 10 -162 157 -160 173 0 3 -23 28 -51 56 -28 28
-49 53 -47 56 5 5 -135 143 -146 143 -4 0 -18 12 -31 26 -14 15 -34 30 -46 33
-11 4 -23 13 -26 21 -3 8 -12 15 -21 15 -8 0 -15 4 -15 8 0 5 -35 26 -77 48
-43 21 -81 42 -84 47 -3 5 -9 8 -13 8 -6 0 -25 5 -53 16 -10 3 -26 5 -35 4
-10 -1 -18 3 -18 8 0 6 -11 11 -24 11 -14 0 -27 4 -30 9 -3 5 -15 7 -26 4 -11
-3 -27 0 -35 7 -8 7 -21 10 -29 7 -29 -11 -25 7 11 52 21 25 40 48 44 51 18
13 89 153 89 175 0 8 5 15 10 15 6 0 10 9 10 19 0 11 5 23 10 26 6 4 8 14 6
23 -3 10 1 35 8 57 8 22 11 42 8 45 -4 3 -8 48 -9 100 -1 106 -5 146 -16 156
-4 4 -7 16 -7 26 0 10 -4 18 -8 18 -5 0 -15 18 -22 41 -8 22 -22 46 -32 53
-10 7 -15 15 -12 19 3 3 -18 30 -48 59 -77 77 -138 161 -186 255 -24 46 -42
85 -43 88 0 6 -6 28 -16 53 -3 9 -7 24 -7 34 -1 9 -4 20 -8 24 -5 4 -8 18 -8
31 0 13 -4 23 -9 23 -4 0 -6 11 -4 24 3 13 0 27 -6 30 -6 4 -11 16 -11 27 0
10 -4 19 -9 19 -5 0 -7 9 -4 20 3 11 1 20 -5 20 -6 0 -14 14 -17 32 -4 17 -21
54 -37 82 -16 28 -32 59 -35 69 -3 9 -9 17 -13 17 -4 0 -10 8 -14 18 -8 24
-28 54 -48 73 -10 9 -18 21 -18 26 0 14 -222 233 -236 233 -7 0 -17 6 -21 13
-4 6 -28 26 -53 42 -25 16 -47 33 -50 36 -6 8 -118 59 -126 58 -4 0 -10 3 -13
8 -9 13 -74 42 -110 49 -17 4 -34 11 -37 15 -3 5 -18 9 -34 9 -16 0 -32 5 -35
10 -4 6 -15 8 -26 5 -10 -4 -19 -2 -19 3 0 5 -16 9 -35 7 -19 -1 -35 2 -35 7
0 12 -347 10 -355 -2 -4 -6 -11 -8 -16 -4 -12 7 8 34 26 34 7 0 16 7 19 16 3
8 10 13 15 10 8 -5 29 12 108 84 18 17 36 30 40 30 10 0 173 163 173 174 0 5
11 21 25 35 40 41 75 88 75 100 0 6 4 11 9 11 11 0 10 -1 94 160 31 61 55 115
52 119 -2 5 2 14 10 21 8 7 12 16 9 22 -3 5 0 15 6 23 6 8 9 19 6 24 -4 5 -1
13 6 18 7 4 14 19 15 33 4 45 10 70 16 77 4 3 7 21 7 38 0 17 3 35 7 39 4 3 7
29 7 55 1 27 4 53 9 57 4 4 7 60 7 124 0 64 3 120 8 124 4 4 8 26 9 49 5 93 8
112 20 119 6 5 9 17 6 28 -3 11 0 27 7 35 6 8 9 19 6 24 -4 5 -1 13 6 18 13 8
18 32 20 86 0 15 4 27 8 27 8 0 17 50 23 127 2 23 6 46 10 49 10 10 9 144 -1
144 -5 0 -8 19 -7 43 1 23 -2 49 -6 57 -14 29 -28 72 -33 100 -1 9 -5 20 -8
25 -26 44 -48 87 -48 97 0 6 -8 18 -17 27 -10 9 -27 32 -37 51 -11 19 -27 40
-35 47 -20 16 -48 16 -53 1 -6 -18 -26 -1 -45 40 -9 20 -30 59 -46 86 -28 48
-28 49 -7 63 24 17 26 50 5 89 -8 16 -15 36 -15 45 0 8 -5 20 -10 25 -13 13
21 47 48 49 9 1 28 7 42 15 44 25 48 22 46 -37 -1 -38 3 -58 14 -68 21 -19 81
-29 90 -15 4 7 21 4 51 -9 41 -19 45 -19 62 -3 11 9 22 15 25 13 11 -6 39 53
34 72 -2 9 0 17 5 17 5 0 9 27 9 60 0 33 -4 60 -8 60 -5 0 -8 6 -7 13 2 18
-12 57 -21 57 -4 0 -10 9 -13 19 -6 26 -49 52 -87 53 -42 1 -111 -68 -97 -98
2 -5 -30 -27 -43 -29 -3 -1 -25 -8 -50 -15 -25 -7 -47 -14 -50 -15 -3 -1 -18
-5 -35 -10 -16 -4 -35 -12 -42 -17 -12 -10 -45 30 -58 72 -13 44 -69 155 -82
163 -7 4 -13 14 -13 20 0 7 -16 37 -35 67 -40 63 -43 75 -16 60 11 -5 33 -10
49 -10 16 0 32 -3 36 -7 10 -10 256 -11 256 -1 0 5 15 8 34 8 19 0 37 4 41 10
3 5 12 7 19 4 8 -3 29 3 48 12 18 10 39 17 46 16 6 -2 12 1 12 7 0 5 14 12 30
16 17 4 30 11 30 17 0 6 3 8 7 5 3 -4 21 4 39 18 18 14 37 25 43 25 6 0 26 14
46 31 19 17 35 27 35 23 0 -4 20 13 45 38 25 26 53 49 63 53 9 3 37 31 62 61
25 31 59 71 75 89 30 33 44 51 104 130 17 22 35 45 41 52 5 7 10 15 10 19 0 3
13 23 28 43 16 20 36 53 46 74 9 20 20 37 24 37 4 0 13 12 20 28 7 15 23 45
36 67 13 22 21 43 19 48 -2 4 0 7 4 7 5 0 24 34 42 75 19 41 37 75 41 75 11 0
5 59 -8 72 -17 17 -15 25 8 48 24 24 25 43 6 59 -11 9 -25 5 -65 -19 -28 -18
-51 -36 -51 -41 0 -4 -7 -6 -15 -3 -8 4 -15 1 -15 -5 0 -6 -7 -11 -15 -11 -8
0 -15 -5 -15 -12 0 -6 -3 -9 -6 -5 -4 3 -25 -4 -48 -17 -22 -12 -54 -26 -71
-31 -16 -5 -33 -9 -37 -10 -5 -2 -10 -4 -13 -5 -3 -1 -14 -3 -24 -4 -11 0 -23
-4 -27 -8 -4 -5 -24 -8 -45 -8 -21 0 -40 -4 -43 -8 -6 -10 -332 -9 -342 1 -4
4 -35 7 -69 7 -34 0 -65 3 -69 7 -4 4 -24 9 -44 10 -101 7 -139 12 -162 21
-14 5 -37 7 -52 5 -16 -2 -28 0 -28 5 0 6 -26 9 -57 8 -32 -1 -64 2 -71 8 -16
12 -144 14 -153 3 -3 -5 -21 -8 -40 -8 -19 0 -44 -5 -57 -12 -28 -13 -52 4
-35 25 6 7 10 24 9 38 -1 14 3 36 9 50 14 31 12 297 -2 325 -5 11 -8 32 -7 48
2 15 -2 27 -8 27 -6 0 -8 11 -6 25 4 18 -1 29 -18 40 -29 19 -26 19 -58 -6z
m-1966 -2235 c0 -8 -5 -12 -10 -9 -6 4 -8 11 -5 16 9 14 15 11 15 -7z m-3210
-158 c0 -2 -8 -10 -17 -17 -16 -13 -17 -12 -4 4 13 16 21 21 21 13z m-4617
-500 c-15 -13 -32 -22 -36 -19 -5 3 4 14 20 24 40 27 49 24 16 -5z m-383 -466
c-6 -11 -13 -20 -16 -20 -2 0 0 9 6 20 6 11 13 20 16 20 2 0 0 -9 -6 -20z
m7129 -172 c-7 -12 -13 -26 -14 -30 0 -15 -13 -18 -18 -4 -3 8 4 25 16 39 26
29 33 27 16 -5z m3644 -603 c-3 -9 -8 -14 -10 -11 -3 3 -2 9 2 15 9 16 15 13
8 -4z m-255 -505 c-7 -10 -14 -17 -17 -15 -4 4 18 35 25 35 2 0 -1 -9 -8 -20z
m-10578 -102 c7 -35 15 -79 16 -98 3 -28 10 -75 13 -87 1 -2 0 -5 -1 -6 -2 -2
2 -10 8 -18 6 -8 10 -22 9 -31 -2 -10 0 -18 4 -18 4 0 8 -7 8 -15 0 -44 -55
59 -63 120 -3 22 -8 47 -11 55 -8 22 -10 160 -2 160 3 0 12 -28 19 -62z
m10520 29 c0 -2 -10 -12 -22 -23 l-23 -19 19 23 c18 21 26 27 26 19z m-11357
-287 c13 0 27 -3 31 -7 3 -4 12 -8 19 -9 7 -2 22 -5 35 -8 12 -3 31 -8 42 -10
11 -3 25 -8 30 -11 5 -3 18 -8 27 -10 10 -2 52 -13 93 -24 41 -12 84 -24 95
-27 11 -3 26 -6 33 -6 6 -1 12 -5 12 -10 0 -5 -16 -7 -35 -5 -20 3 -38 0 -41
-4 -8 -13 -44 -11 -44 3 0 6 -3 9 -6 5 -3 -3 -27 6 -54 19 -26 13 -55 24 -64
24 -9 0 -16 4 -16 8 0 5 -6 9 -12 10 -34 4 -83 11 -83 13 0 1 -62 6 -119 8
-16 0 -27 4 -24 7 4 3 3 18 -2 34 l-8 28 34 -14 c18 -8 44 -14 57 -14z m454
-126 c-3 -3 -12 -4 -19 -1 -8 3 -5 6 6 6 11 1 17 -2 13 -5z m48 -84 c3 -6 -1
-7 -9 -4 -18 7 -21 14 -7 14 6 0 13 -4 16 -10z m85 -31 c24 -11 53 -27 62 -36
10 -9 18 -12 18 -7 0 5 4 4 8 -2 4 -6 28 -25 54 -42 26 -18 62 -46 80 -63 32
-29 32 -30 6 -18 -16 7 -28 17 -28 22 0 6 -3 8 -6 4 -4 -3 -36 15 -73 40 -36
26 -95 64 -131 85 -69 41 -64 51 10 17z m225 -17 c-3 -3 -11 0 -18 7 -9 10 -8
11 6 5 10 -3 15 -9 12 -12z m55 -23 c18 -15 20 -19 7 -15 -10 3 -22 6 -27 6
-4 0 -10 7 -14 15 -8 21 4 18 34 -6z m240 -70 c0 -4 11 -19 24 -32 13 -13 34
-44 46 -68 12 -23 29 -49 36 -57 8 -7 14 -16 14 -20 -1 -8 -38 34 -57 64 -7
10 -31 45 -52 76 -22 31 -33 54 -25 51 8 -3 14 -9 14 -14z m-2926 -394 c-4 -8
-11 -15 -16 -15 -6 0 -5 6 2 15 7 8 14 15 16 15 2 0 1 -7 -2 -15z m-75 -167
c-12 -29 -22 -60 -23 -68 0 -8 -7 -21 -13 -28 -7 -7 -13 -21 -13 -31 0 -10
-11 -44 -25 -77 -23 -55 -25 -56 -19 -19 4 22 10 42 14 45 4 3 6 13 4 24 -1
10 1 26 5 35 34 70 55 124 52 135 -2 10 19 36 30 36 5 0 -1 -24 -12 -52z
m10238 -63 c0 -17 -13 -20 -21 -6 -4 5 0 12 6 14 7 3 13 6 14 6 0 1 1 -6 1
-14z m-10343 -220 c-4 -8 -8 -15 -10 -15 -2 0 -4 7 -4 15 0 8 4 15 10 15 5 0
7 -7 4 -15z m-23 -48 c-10 -9 -11 -8 -5 6 3 10 9 15 12 12 3 -3 0 -11 -7 -18z
m5394 -775 c-6 -6 -35 18 -35 29 0 5 9 1 20 -8 11 -9 17 -19 15 -21z m-2162
-2447 c-3 -9 -8 -14 -10 -11 -3 3 -2 9 2 15 9 16 15 13 8 -4z m-23 -9 c0 -8
-10 -18 -22 -22 -12 -3 -28 -13 -36 -20 -7 -8 -20 -14 -28 -14 -8 0 -14 -4
-14 -10 0 -5 -9 -14 -20 -20 -20 -11 -20 -10 1 30 12 22 25 41 30 41 10 2 25
5 37 9 4 1 15 2 25 1 9 -1 17 3 17 8 0 6 2 11 5 11 3 0 5 -6 5 -14z m8214
-337 c-15 -22 -32 -43 -38 -46 -5 -4 -1 7 11 23 11 16 21 31 21 34 0 3 6 18
14 34 10 23 14 26 16 12 2 -9 -9 -35 -24 -57z m-9432 -343 c7 4 8 2 4 -4 -5
-9 -13 -9 -27 -2 -10 6 -19 8 -19 4 0 -4 -3 -5 -6 -2 -3 4 0 17 7 30 l12 23
10 -28 c5 -15 13 -24 19 -21z m2731 -166 c-3 -11 -1 -26 5 -33 6 -6 11 -35 12
-62 2 -108 7 -151 17 -170 5 -11 9 -37 7 -57 -1 -21 2 -40 7 -44 5 -3 9 -20 9
-38 0 -18 3 -36 7 -40 15 -15 11 -36 -7 -36 -14 0 -21 10 -26 35 -3 19 -10 37
-14 40 -5 3 -11 23 -15 45 -4 22 -11 40 -16 40 -5 0 -8 3 -7 8 0 4 -2 16 -6
27 -4 11 -12 32 -18 47 -5 15 -16 29 -23 32 -10 4 -11 14 -3 48 6 24 10 51 10
61 0 9 3 17 9 17 5 0 9 8 9 19 0 31 21 81 35 81 8 0 11 -8 8 -20z m4010 -105
c-3 -9 -8 -14 -10 -11 -3 3 -2 9 2 15 9 16 15 13 8 -4z m-1493 -680 c-14 -8
-33 -18 -42 -21 -10 -3 -18 -10 -18 -15 0 -12 -58 -40 -64 -31 -5 9 10 37 21
38 4 0 28 10 53 22 52 24 87 29 50 7z m-4566 -73 c3 -5 -1 -9 -9 -9 -8 0 -12
4 -9 9 3 4 7 8 9 8 2 0 6 -4 9 -8z m4335 -42 c-28 -19 -42 -20 -56 -5 -9 10
-6 15 14 24 13 6 29 9 34 6 5 -4 9 0 9 7 0 9 3 9 10 -2 7 -11 4 -19 -11 -30z
m-139 -34 c0 -11 -19 -15 -25 -6 -3 5 1 10 9 10 9 0 16 -2 16 -4z m-625 -336
c-3 -5 -12 -10 -18 -10 -7 0 -6 4 3 10 19 12 23 12 15 0z"/>
</g>
</svg>
